<svg width="25" height="25" viewBox="0 0 25 25" fill="none" xmlns="http://www.w3.org/2000/svg">
<circle cx="12.5" cy="12.5" r="12.5" fill="#908C9C"/>
<path d="M11.4404 15.1973C11.4495 14.6549 11.5111 14.2266 11.625 13.9121C11.7389 13.5977 11.9714 13.249 12.3223 12.8662L13.2178 11.9434C13.6006 11.5104 13.792 11.0456 13.792 10.5488C13.792 10.0703 13.6667 9.69661 13.416 9.42773C13.1654 9.1543 12.8008 9.01758 12.3223 9.01758C11.8574 9.01758 11.4837 9.14062 11.2012 9.38672C10.9186 9.63281 10.7773 9.96322 10.7773 10.3779H9.5127C9.52181 9.63965 9.78385 9.04492 10.2988 8.59375C10.8184 8.13802 11.4928 7.91016 12.3223 7.91016C13.1836 7.91016 13.8535 8.14258 14.332 8.60742C14.8151 9.06771 15.0566 9.70117 15.0566 10.5078C15.0566 11.3053 14.6875 12.0915 13.9492 12.8662L13.2041 13.6045C12.8714 13.9736 12.7051 14.5046 12.7051 15.1973H11.4404ZM11.3857 17.3643C11.3857 17.1592 11.4473 16.9883 11.5703 16.8516C11.6979 16.7103 11.8848 16.6396 12.1309 16.6396C12.377 16.6396 12.5638 16.7103 12.6914 16.8516C12.819 16.9883 12.8828 17.1592 12.8828 17.3643C12.8828 17.5693 12.819 17.7402 12.6914 17.877C12.5638 18.0091 12.377 18.0752 12.1309 18.0752C11.8848 18.0752 11.6979 18.0091 11.5703 17.877C11.4473 17.7402 11.3857 17.5693 11.3857 17.3643Z" fill="white"/>
</svg>
